<svg width="380" height="411" viewBox="0 0 380 411" fill="none" xmlns="http://www.w3.org/2000/svg">
    <mask id="mask0_1_148" style="mask-type:luminance" maskUnits="userSpaceOnUse" x="0" y="0" width="380" height="411">
        <path d="M380 1.52588e-05H0V410.4H380V1.52588e-05Z" fill="white"/>
    </mask>
    <g mask="url(#mask0_1_148)">
        <path d="M241.045 232.848L76.7855 275.304C71.2136 276.737 65.3027 275.893 60.3497 272.958C55.3965 270.023 51.8058 265.235 50.365 259.646L0.688487 66.0175C-0.739631 60.4249 0.100736 54.492 3.02524 49.5205C5.94973 44.5489 10.7195 40.9448 16.2881 39.4987L169.106 2.67029e-05L208.22 17.5753L256.646 206.329C258.073 211.921 257.233 217.854 254.309 222.825C251.384 227.798 246.615 231.402 241.045 232.848Z" fill="#F2F2F2"/>
        <path d="M17.8467 45.5688C13.8811 46.5986 10.4845 49.1651 8.40189 52.7054C6.31928 56.2457 5.72084 60.4707 6.73784 64.4533L56.4144 258.082C57.4404 262.062 59.9974 265.472 63.5246 267.562C67.0518 269.652 71.261 270.253 75.2289 269.232L239.489 226.776C243.454 225.746 246.851 223.179 248.934 219.639C251.016 216.099 251.615 211.874 250.598 207.891L202.922 22.0624L168.548 6.61689L17.8467 45.5688Z" fill="white"/>
        <path d="M207.802 18.574L182.38 25.1446C180.524 25.6243 178.554 25.3444 176.904 24.3664C175.253 23.3885 174.058 21.7925 173.58 19.9298L168.746 1.08392C168.724 1.00141 168.727 0.914588 168.753 0.833403C168.778 0.752218 168.826 0.679961 168.891 0.624913C168.956 0.569866 169.035 0.53426 169.119 0.522178C169.203 0.510097 169.289 0.522027 169.366 0.556604L207.872 17.7208C207.958 17.7589 208.03 17.8229 208.077 17.9039C208.125 17.9849 208.146 18.0787 208.138 18.1726C208.131 18.2664 208.095 18.3554 208.034 18.4273C207.973 18.4993 207.893 18.5505 207.802 18.574Z" fill="#F2F2F2"/>
        <path d="M194.429 183.927L119.644 203.258C119.184 203.376 118.706 203.404 118.236 203.337C117.766 203.269 117.314 203.11 116.906 202.868C116.497 202.626 116.14 202.305 115.855 201.925C115.57 201.544 115.362 201.111 115.244 200.65C115.126 200.19 115.099 199.709 115.165 199.237C115.232 198.765 115.39 198.312 115.632 197.903C115.873 197.492 116.192 197.133 116.571 196.848C116.951 196.561 117.382 196.353 117.842 196.234L192.627 176.904C193.087 176.786 193.564 176.759 194.034 176.825C194.505 176.892 194.957 177.051 195.365 177.293C195.774 177.536 196.131 177.855 196.416 178.237C196.701 178.618 196.908 179.05 197.026 179.512C197.145 179.973 197.172 180.452 197.105 180.924C197.039 181.395 196.88 181.849 196.64 182.26C196.398 182.67 196.078 183.028 195.699 183.314C195.321 183.601 194.889 183.809 194.429 183.927Z" fill="#CCCCCC"/>
        <path d="M211.902 192.051L122.683 215.112C121.755 215.351 120.771 215.211 119.946 214.722C119.12 214.233 118.523 213.435 118.284 212.504C118.045 211.572 118.184 210.584 118.671 209.757C119.159 208.928 119.954 208.328 120.881 208.088L210.099 185.028C211.026 184.789 212.01 184.93 212.835 185.419C213.659 185.907 214.256 186.705 214.495 187.636C214.734 188.567 214.596 189.555 214.108 190.384C213.623 191.211 212.829 191.81 211.902 192.051Z" fill="#CCCCCC"/>
        <path d="M89.1199 226.54C96.1723 226.54 101.889 220.801 101.889 213.722C101.889 206.645 96.1723 200.906 89.1199 200.906C82.0675 200.906 76.3504 206.645 76.3504 213.722C76.3504 220.801 82.0675 226.54 89.1199 226.54Z" fill="#E6E6E6"/>
        <path d="M186.477 150.386L87.1541 176.048C84.2836 176.786 81.2387 176.351 78.6873 174.839C76.1358 173.326 74.2862 170.86 73.5444 167.98L52.73 86.8204C51.9946 83.9393 52.4278 80.8831 53.9346 78.3222C55.4413 75.7612 57.8987 73.9048 60.7674 73.1601L160.09 47.4977C162.96 46.7595 166.006 47.1943 168.557 48.7068C171.109 50.2191 172.958 52.6856 173.699 55.5651L194.514 136.724C195.249 139.605 194.816 142.662 193.31 145.223C191.802 147.783 189.346 149.641 186.477 150.386Z" fill="white"/>
        <path d="M186.477 150.386L87.1541 176.048C84.2836 176.786 81.2387 176.351 78.6873 174.839C76.1358 173.326 74.2862 170.86 73.5444 167.98L52.73 86.8204C51.9946 83.9393 52.4278 80.8831 53.9346 78.3222C55.4413 75.7612 57.8987 73.9048 60.7674 73.1601L160.09 47.4977C162.96 46.7595 166.006 47.1943 168.557 48.7068C171.109 50.2191 172.958 52.6856 173.699 55.5651L194.514 136.724C195.249 139.605 194.816 142.662 193.31 145.223C191.802 147.783 189.346 149.641 186.477 150.386ZM61.0953 74.4382C58.564 75.0952 56.3958 76.7333 55.0662 78.9929C53.7368 81.2526 53.3544 83.9493 54.0034 86.4914L74.8177 167.651C75.4723 170.192 77.1043 172.368 79.3555 173.703C81.6069 175.037 84.2936 175.42 86.8263 174.769L186.148 149.107C188.679 148.451 190.848 146.812 192.178 144.552C193.507 142.293 193.89 139.596 193.241 137.053L172.426 55.8941C171.772 53.3534 170.14 51.1771 167.888 49.8426C165.637 48.5081 162.951 48.1245 160.417 48.7758L61.0953 74.4382Z" fill="#E6E6E6"/>
        <path d="M155.051 74.7869L104.924 87.7384C104.485 87.8611 104.017 87.8124 103.613 87.6019C103.21 87.3914 102.9 87.0349 102.749 86.6044C102.678 86.3795 102.654 86.1425 102.677 85.9078C102.701 85.6732 102.772 85.4459 102.885 85.2397C102.999 85.0335 103.154 84.8527 103.34 84.7085C103.526 84.5644 103.739 84.4596 103.967 84.4009L154.992 71.217C157.054 72.2653 156.512 74.4093 155.051 74.7869Z" fill="#F2F2F2"/>
        <path d="M157.315 83.6121L107.187 96.5635C106.749 96.6864 106.281 96.6376 105.877 96.4271C105.473 96.2164 105.164 95.86 105.012 95.4295C104.941 95.2046 104.917 94.9676 104.941 94.733C104.964 94.4983 105.035 94.271 105.149 94.0648C105.263 93.8587 105.418 93.6779 105.604 93.5336C105.79 93.3894 106.003 93.2848 106.23 93.226L157.256 80.0422C159.318 81.0905 158.776 83.2345 157.315 83.6121Z" fill="#F2F2F2"/>
        <path d="M97.639 104.389L82.3407 108.342C81.8411 108.47 81.311 108.395 80.867 108.131C80.4228 107.868 80.1009 107.439 79.9718 106.937L75.3247 88.8171C75.1966 88.3155 75.2719 87.7836 75.5342 87.3377C75.7966 86.892 76.2243 86.5689 76.7236 86.4394L92.0219 82.4866C92.5215 82.3583 93.0514 82.434 93.4955 82.6972C93.9395 82.9605 94.2616 83.3898 94.3908 83.8909L99.0379 102.011C99.166 102.513 99.0906 103.045 98.8284 103.491C98.566 103.936 98.1383 104.259 97.639 104.389Z" fill="#E6E6E6"/>
        <path d="M161.802 101.719L85.2986 121.485C84.8604 121.608 84.392 121.559 83.9883 121.349C83.5845 121.138 83.2755 120.782 83.1235 120.351C83.0528 120.126 83.0285 119.889 83.0521 119.655C83.0756 119.42 83.1466 119.193 83.2606 118.987C83.3746 118.78 83.5292 118.6 83.7151 118.455C83.901 118.311 84.1141 118.207 84.3417 118.148L161.743 98.149C163.805 99.1972 163.263 101.341 161.802 101.719Z" fill="#F2F2F2"/>
        <path d="M164.068 110.547L87.5646 130.313C87.1264 130.436 86.658 130.387 86.2543 130.177C85.8504 129.966 85.5414 129.61 85.3895 129.179C85.3188 128.954 85.2944 128.717 85.318 128.483C85.3416 128.248 85.4124 128.021 85.5264 127.814C85.6404 127.608 85.7951 127.427 85.9809 127.283C86.1669 127.139 86.3801 127.034 86.6075 126.976L164.009 106.977C166.071 108.025 165.528 110.169 164.068 110.547Z" fill="#F2F2F2"/>
        <path d="M166.328 119.369L89.8258 139.135C89.3876 139.259 88.9193 139.21 88.5155 138.999C88.1116 138.789 87.8026 138.433 87.6507 138.002C87.58 137.776 87.5557 137.54 87.5792 137.305C87.6028 137.071 87.6737 136.843 87.7877 136.637C87.9017 136.431 88.0564 136.25 88.2422 136.106C88.4281 135.962 88.6413 135.857 88.8688 135.798L166.271 115.799C168.332 116.848 167.789 118.992 166.328 119.369Z" fill="#F2F2F2"/>
        <path d="M168.592 128.197L92.0897 147.963C91.6513 148.086 91.1831 148.038 90.7792 147.827C90.3755 147.616 90.0664 147.26 89.9144 146.829C89.8437 146.604 89.8194 146.367 89.843 146.132C89.8665 145.899 89.9375 145.67 90.0515 145.465C90.1655 145.258 90.3201 145.078 90.506 144.934C90.6919 144.79 90.9051 144.685 91.1326 144.625L168.535 124.627C170.596 125.675 170.053 127.819 168.592 128.197Z" fill="#F2F2F2"/>
        <path d="M170.855 137.019L94.3533 156.786C93.9151 156.909 93.4467 156.86 93.043 156.649C92.6392 156.439 92.3301 156.082 92.1782 155.652C92.1075 155.427 92.0832 155.19 92.1068 154.956C92.1303 154.721 92.2013 154.494 92.3153 154.287C92.4293 154.081 92.5838 153.9 92.7698 153.756C92.9556 153.612 93.1688 153.507 93.3964 153.449L170.798 133.45C172.86 134.498 172.317 136.641 170.855 137.019Z" fill="#F2F2F2"/>
        <path d="M90.0612 218.215C89.7831 218.287 89.4892 218.266 89.2236 218.156L89.2072 218.15L85.7285 216.67C85.567 216.602 85.4206 216.501 85.2976 216.376C85.1747 216.25 85.0777 216.102 85.012 215.938C84.9463 215.775 84.9132 215.601 84.9148 215.425C84.9164 215.25 84.9525 215.076 85.0211 214.913C85.0897 214.751 85.1893 214.604 85.3146 214.482C85.4397 214.358 85.5879 214.26 85.7505 214.195C85.9131 214.13 86.0871 214.097 86.2624 214.098C86.4378 214.1 86.611 214.137 86.7722 214.206L89.0263 215.168L91.9801 208.194C92.0486 208.032 92.1482 207.885 92.2731 207.762C92.3981 207.639 92.5459 207.542 92.7083 207.476C92.8706 207.411 93.0444 207.377 93.2193 207.38C93.3944 207.381 93.5674 207.417 93.7285 207.486C94.0537 207.625 94.3117 207.888 94.4438 208.217C94.576 208.546 94.5728 208.914 94.4346 209.242L90.9595 217.441C90.879 217.63 90.7561 217.799 90.6004 217.932C90.4447 218.067 90.2606 218.162 90.062 218.213L90.0612 218.215Z" fill="white"/>
        <path d="M304.051 306.633H134.431C128.68 306.626 123.165 304.331 119.098 300.247C115.03 296.165 112.742 290.63 112.736 284.857V84.9112C112.742 79.1378 115.03 73.6028 119.098 69.5203C123.165 65.4379 128.68 63.1416 134.431 63.135H292.234L325.746 89.9454V284.857C325.739 290.63 323.451 296.165 319.384 300.247C315.318 304.331 309.802 306.626 304.051 306.633Z" fill="#E6E6E6"/>
        <path d="M134.431 69.4042C130.335 69.4089 126.408 71.0441 123.511 73.9513C120.615 76.8584 118.986 80.8002 118.981 84.9115V284.857C118.986 288.968 120.615 292.91 123.511 295.817C126.408 298.725 130.335 300.36 134.431 300.364H304.049C308.146 300.36 312.073 298.725 314.969 295.817C317.866 292.91 319.495 288.968 319.499 284.857V92.9658L290.049 69.4042H134.431Z" fill="white"/>
        <path d="M271.059 127.543H193.833C192.875 127.543 191.956 127.161 191.279 126.481C190.602 125.801 190.22 124.878 190.22 123.917C190.22 122.955 190.602 122.032 191.279 121.352C191.956 120.672 192.875 120.29 193.833 120.29H271.059C272.017 120.29 272.935 120.672 273.613 121.352C274.291 122.032 274.671 122.955 274.671 123.917C274.671 124.878 274.291 125.801 273.613 126.481C272.935 127.161 272.017 127.543 271.059 127.543Z" fill="#F47920"/>
        <path d="M285.963 139.783H193.834C192.876 139.782 191.959 139.4 191.282 138.721C190.606 138.04 190.226 137.119 190.226 136.158C190.226 135.197 190.606 134.275 191.282 133.595C191.959 132.915 192.876 132.532 193.834 132.531H285.963C286.436 132.531 286.907 132.624 287.346 132.806C287.785 132.988 288.184 133.255 288.52 133.592C288.856 133.928 289.122 134.328 289.304 134.769C289.486 135.209 289.58 135.681 289.58 136.158C289.58 136.635 289.486 137.106 289.304 137.547C289.122 137.987 288.856 138.386 288.52 138.723C288.184 139.06 287.785 139.327 287.346 139.509C286.907 139.691 286.436 139.785 285.963 139.783Z" fill="#F47920"/>
        <path d="M271.059 175.136H193.836C192.878 175.136 191.959 175.518 191.282 176.197C190.605 176.878 190.223 177.801 190.223 178.762C190.223 179.724 190.605 180.647 191.282 181.326C191.959 182.006 192.878 182.389 193.836 182.389H271.059C272.017 182.389 272.936 182.006 273.613 181.326C274.29 180.647 274.671 179.724 274.671 178.762C274.671 177.801 274.29 176.878 273.613 176.197C272.936 175.518 272.017 175.136 271.059 175.136Z" fill="#CCCCCC"/>
        <path d="M285.963 187.377H193.836C192.878 187.377 191.959 187.759 191.282 188.439C190.605 189.12 190.223 190.041 190.223 191.003C190.223 191.965 190.605 192.887 191.282 193.567C191.959 194.247 192.878 194.629 193.836 194.629H285.963C286.921 194.629 287.84 194.247 288.517 193.567C289.194 192.887 289.576 191.965 289.576 191.003C289.576 190.041 289.194 189.12 288.517 188.439C287.84 187.759 286.921 187.377 285.963 187.377Z" fill="#CCCCCC"/>
        <path d="M271.059 237.24H193.833C192.875 237.24 191.956 236.858 191.279 236.178C190.602 235.498 190.22 234.575 190.22 233.614C190.22 232.652 190.602 231.729 191.279 231.05C191.956 230.369 192.875 229.987 193.833 229.987H271.059C272.017 229.987 272.935 230.369 273.613 231.05C274.291 231.729 274.671 232.652 274.671 233.614C274.671 234.575 274.291 235.498 273.613 236.178C272.935 236.858 272.017 237.24 271.059 237.24Z" fill="#CCCCCC"/>
        <path d="M285.963 249.478H193.834C192.876 249.477 191.959 249.095 191.282 248.414C190.606 247.735 190.226 246.813 190.226 245.853C190.226 244.891 190.606 243.969 191.282 243.29C191.959 242.61 192.876 242.227 193.834 242.226H285.963C286.436 242.226 286.907 242.318 287.346 242.5C287.785 242.682 288.184 242.95 288.52 243.286C288.856 243.623 289.122 244.024 289.304 244.464C289.486 244.904 289.58 245.376 289.58 245.853C289.58 246.328 289.486 246.801 289.304 247.242C289.122 247.682 288.856 248.081 288.52 248.418C288.184 248.755 287.785 249.022 287.346 249.204C286.907 249.386 286.436 249.48 285.963 249.478Z" fill="#CCCCCC"/>
        <path d="M161.674 142.853C168.726 142.853 174.444 137.114 174.444 130.036C174.444 122.958 168.726 117.219 161.674 117.219C154.621 117.219 148.905 122.958 148.905 130.036C148.905 137.114 154.621 142.853 161.674 142.853Z" fill="#F47920"/>
        <path d="M160.408 134.927C160.122 134.928 159.842 134.834 159.611 134.661L159.598 134.651L156.596 132.346C156.457 132.24 156.341 132.106 156.252 131.954C156.164 131.802 156.107 131.634 156.084 131.459C156.061 131.285 156.072 131.107 156.117 130.937C156.163 130.767 156.24 130.608 156.347 130.468C156.453 130.328 156.588 130.211 156.738 130.123C156.89 130.035 157.059 129.978 157.232 129.955C157.406 129.932 157.582 129.944 157.752 129.99C157.922 130.036 158.08 130.114 158.219 130.222L160.164 131.718L164.756 125.703C164.863 125.564 164.995 125.447 165.147 125.359C165.299 125.271 165.466 125.214 165.64 125.191C165.813 125.168 165.99 125.179 166.158 125.225C166.328 125.27 166.487 125.348 166.625 125.455L166.598 125.495L166.626 125.456C166.907 125.672 167.091 125.991 167.137 126.343C167.183 126.694 167.088 127.05 166.873 127.332L161.471 134.404C161.346 134.567 161.184 134.698 161.001 134.789C160.816 134.879 160.614 134.926 160.409 134.926L160.408 134.927Z" fill="white"/>
        <path d="M175.757 184.885C175.757 186.569 175.427 188.235 174.786 189.791C174.144 191.347 173.204 192.76 172.019 193.951C170.833 195.141 169.426 196.086 167.876 196.73C166.326 197.375 164.666 197.707 162.989 197.707C162.879 197.71 162.769 197.704 162.66 197.693C160.149 197.629 157.713 196.822 155.657 195.375C153.6 193.928 152.015 191.904 151.099 189.557C150.183 187.209 149.976 184.643 150.506 182.178C151.035 179.714 152.278 177.461 154.076 175.703C155.874 173.943 158.15 172.755 160.619 172.288C163.088 171.82 165.638 172.094 167.952 173.073C170.266 174.053 172.24 175.697 173.629 177.798C175.017 179.899 175.757 182.364 175.757 184.885Z" fill="#CCCCCC"/>
        <path d="M161.674 252.551C168.726 252.551 174.444 246.812 174.444 239.733C174.444 232.655 168.726 226.916 161.674 226.916C154.621 226.916 148.905 232.655 148.905 239.733C148.905 246.812 154.621 252.551 161.674 252.551Z" fill="#CCCCCC"/>
        <path d="M325.093 90.8086H298.842C296.926 90.8086 295.088 90.0445 293.732 88.6843C292.378 87.3241 291.617 85.4794 291.617 83.5559V64.0952C291.617 64.01 291.641 63.9266 291.686 63.8544C291.731 63.7821 291.796 63.7242 291.872 63.6871C291.948 63.65 292.033 63.6354 292.117 63.6446C292.201 63.654 292.282 63.687 292.348 63.7399L325.374 90C325.447 90.0585 325.5 90.1384 325.527 90.2287C325.553 90.3191 325.551 90.4154 325.519 90.5043C325.489 90.5932 325.431 90.6703 325.355 90.7247C325.278 90.7792 325.187 90.8086 325.093 90.8086Z" fill="#CCCCCC"/>
        <path d="M175.757 184.885C175.759 186.569 175.429 188.235 174.787 189.791C174.146 191.347 173.206 192.76 172.02 193.951C170.835 195.141 169.426 196.086 167.878 196.73C166.328 197.375 164.668 197.707 162.991 197.707C162.881 197.71 162.771 197.704 162.662 197.693C161.012 193.563 160.375 189.095 160.807 184.668C161.238 180.239 162.725 175.98 165.14 172.249C168.111 172.759 170.805 174.309 172.748 176.62C174.69 178.933 175.757 181.86 175.757 184.885Z" fill="#F47920"/>
        <path d="M190.22 178.766C190.222 177.804 190.603 176.881 191.282 176.202C191.959 175.521 192.878 175.138 193.836 175.136H213.08C214.204 177.43 215.002 179.872 215.452 182.389H193.836C192.879 182.387 191.96 182.007 191.282 181.328C190.604 180.648 190.223 179.727 190.22 178.766Z" fill="#F47920"/>
        <path d="M215.899 187.377C215.9 189.826 215.579 192.266 214.939 194.629H193.836C192.878 194.629 191.959 194.247 191.282 193.567C190.605 192.887 190.223 191.965 190.223 191.003C190.223 190.041 190.605 189.12 191.282 188.439C191.959 187.759 192.878 187.377 193.836 187.377H215.899Z" fill="#F47920"/>
        <path d="M263.513 232.104C262.969 233.001 262.092 233.644 261.074 233.891C260.058 234.139 258.985 233.97 258.092 233.422L212.068 205.246C211.625 204.974 211.241 204.62 210.936 204.2C210.63 203.78 210.411 203.303 210.288 202.797C210.166 202.292 210.145 201.769 210.225 201.255C210.305 200.74 210.485 200.248 210.754 199.804C211.024 199.361 211.378 198.973 211.796 198.668C212.216 198.36 212.689 198.14 213.193 198.018C213.696 197.896 214.219 197.874 214.732 197.954C215.243 198.034 215.733 198.215 216.176 198.485L262.2 226.663C263.093 227.209 263.733 228.09 263.98 229.111C264.225 230.131 264.058 231.209 263.513 232.104Z" fill="#3F3D56"/>
        <path d="M217.488 203.927C214.238 209.274 209.481 213.536 203.817 216.169C198.155 218.804 191.842 219.695 185.675 218.727C179.508 217.759 173.766 214.979 169.174 210.736C164.582 206.494 161.347 200.979 159.877 194.89C158.407 188.802 158.77 182.413 160.918 176.53C163.066 170.649 166.904 165.538 171.946 161.846C176.988 158.154 183.007 156.044 189.243 155.785C195.479 155.527 201.651 157.129 206.98 160.392C214.118 164.773 219.233 171.816 221.202 179.978C223.173 188.14 221.836 196.753 217.488 203.927ZM170.342 175.061C167.903 179.073 166.706 183.719 166.899 188.414C167.093 193.108 168.669 197.64 171.428 201.436C174.188 205.231 178.006 208.12 182.402 209.738C186.796 211.355 191.571 211.626 196.12 210.52C200.669 209.414 204.789 206.979 207.961 203.522C211.131 200.065 213.209 195.742 213.931 191.1C214.654 186.458 213.989 181.705 212.02 177.442C210.052 173.179 206.868 169.599 202.871 167.151C197.511 163.877 191.075 162.872 184.978 164.356C178.879 165.838 173.616 169.688 170.342 175.061Z" fill="#3F3D56"/>
        <path d="M318.596 192.51C327.515 192.51 334.744 185.254 334.744 176.302C334.744 167.351 327.515 160.096 318.596 160.096C309.678 160.096 302.448 167.351 302.448 176.302C302.448 185.254 309.678 192.51 318.596 192.51Z" fill="#FFD6BF"/>
        <path d="M317.551 267.165C317.24 266.191 317.137 265.162 317.25 264.146C317.363 263.129 317.687 262.148 318.204 261.266C318.721 260.384 319.417 259.622 320.248 259.029C321.078 258.437 322.024 258.026 323.023 257.826C323.339 257.764 323.661 257.725 323.983 257.708L340.992 230.307L325.455 215.482C324.861 214.915 324.386 214.236 324.055 213.484C323.724 212.731 323.544 211.921 323.528 211.099C323.51 210.277 323.656 209.46 323.956 208.695C324.254 207.93 324.702 207.232 325.272 206.641C325.842 206.051 326.522 205.579 327.275 205.253C328.027 204.928 328.836 204.756 329.656 204.746C330.474 204.737 331.287 204.89 332.047 205.197C332.806 205.506 333.498 205.961 334.081 206.539L355.532 227.769L355.576 227.822C356.239 228.836 356.56 230.036 356.489 231.247C356.418 232.458 355.961 233.614 355.185 234.542L331.353 262.834C331.424 263.061 331.484 263.291 331.53 263.524C331.729 264.527 331.716 265.561 331.489 266.559C331.262 267.556 330.828 268.494 330.215 269.311C329.603 270.129 328.824 270.806 327.932 271.3C327.04 271.795 326.054 272.094 325.039 272.18C324.832 272.197 324.629 272.207 324.425 272.207C322.897 272.2 321.408 271.709 320.175 270.804C318.94 269.898 318.022 268.625 317.551 267.165Z" fill="#FFD6BF"/>
        <path d="M292.002 401.873L283.942 401.871L280.108 370.667H292.003L292.002 401.873Z" fill="#FFD6BF"/>
        <path d="M294.057 409.712L268.068 409.711V409.382C268.068 408.049 268.329 406.728 268.838 405.496C269.346 404.264 270.091 403.145 271.032 402.203C271.971 401.26 273.085 400.511 274.313 400.001C275.54 399.492 276.855 399.228 278.184 399.228L294.057 399.23V409.712Z" fill="#454C55"/>
        <path d="M372.115 390.687L365.19 394.825L345.989 369.984L356.211 363.875L372.115 390.687Z" fill="#FFD6BF"/>
        <path d="M377.878 396.369L355.548 409.715L355.379 409.431C354.699 408.286 354.252 407.016 354.06 405.697C353.869 404.377 353.939 403.033 354.265 401.741C354.592 400.449 355.169 399.234 355.963 398.164C356.758 397.096 357.754 396.195 358.896 395.513L372.535 387.362L377.878 396.369Z" fill="#454C55"/>
        <path d="M279.091 388.13C273.693 324.315 270.48 265.031 290.218 240.848L290.37 240.66L323.588 253.997L323.644 254.116C323.755 254.361 334.802 278.751 332.225 295.158L340.419 332.987L367.134 377.886C367.349 378.248 367.485 378.651 367.534 379.07C367.581 379.488 367.54 379.911 367.413 380.312C367.285 380.714 367.075 381.082 366.794 381.396C366.513 381.709 366.17 381.959 365.786 382.129L354.176 387.255C353.521 387.541 352.785 387.581 352.103 387.367C351.422 387.153 350.839 386.7 350.462 386.09L321.402 338.526L304.987 302.042C304.897 301.845 304.745 301.682 304.555 301.579C304.364 301.476 304.145 301.439 303.931 301.473C303.718 301.508 303.521 301.611 303.372 301.769C303.223 301.927 303.13 302.129 303.107 302.345L294.008 388.195C293.932 388.925 293.588 389.6 293.045 390.091C292.503 390.581 291.797 390.852 291.067 390.85H282.04C281.299 390.846 280.588 390.565 280.043 390.062C279.497 389.559 279.158 388.87 279.091 388.13Z" fill="#454C55"/>
        <path d="M290.328 241.352L290.17 241.276L290.145 241.102C288.905 232.384 290.373 222.699 294.511 212.314C296.55 207.232 300.34 203.053 305.192 200.542C310.044 198.029 315.632 197.349 320.94 198.625C323.999 199.382 326.867 200.769 329.364 202.695C331.86 204.622 333.931 207.048 335.444 209.82C336.938 212.564 337.849 215.589 338.117 218.705C338.386 221.82 338.006 224.958 337.005 227.917C331.788 243.227 325.022 257.552 324.955 257.695L324.812 257.993L290.328 241.352Z" fill="#F47920"/>
        <path d="M254.086 219.64C254.886 219.007 255.811 218.549 256.799 218.299C257.787 218.049 258.815 218.011 259.82 218.187C260.824 218.364 261.778 218.753 262.622 219.325C263.466 219.898 264.18 220.644 264.716 221.514C264.886 221.79 265.035 222.078 265.164 222.374L296.691 228.771L305.085 208.971C305.405 208.214 305.872 207.529 306.458 206.956C307.044 206.381 307.738 205.928 308.499 205.625C309.26 205.321 310.073 205.171 310.893 205.185C311.711 205.199 312.52 205.375 313.271 205.703C314.021 206.032 314.7 206.507 315.267 207.1C315.833 207.694 316.278 208.393 316.573 209.161C316.869 209.928 317.011 210.746 316.989 211.567C316.969 212.389 316.786 213.199 316.452 213.949L304.151 241.553L304.117 241.611C303.403 242.59 302.395 243.311 301.24 243.67C300.086 244.028 298.847 244.002 297.708 243.598L262.96 231.099C262.774 231.245 262.58 231.381 262.379 231.508C261.512 232.046 260.542 232.395 259.532 232.531C258.522 232.667 257.495 232.588 256.518 232.297C255.541 232.008 254.635 231.513 253.862 230.847C253.088 230.181 252.463 229.359 252.028 228.435C251.939 228.248 251.859 228.059 251.788 227.868C251.259 226.428 251.196 224.857 251.609 223.38C252.022 221.903 252.889 220.594 254.086 219.64Z" fill="#FFD6BF"/>
        <path d="M376.932 193.66C375.377 190.895 373.11 188.36 370.114 187.338C366.246 186.017 362.056 187.424 358.079 188.363C355.014 189.086 351.813 189.529 348.723 188.917C345.634 188.307 342.655 186.504 341.249 183.676C339.182 179.516 340.923 174.556 340.797 169.908C340.733 167.379 340.097 164.897 338.938 162.65C337.779 160.403 336.126 158.45 334.105 156.937C332.084 155.423 329.748 154.391 327.272 153.916C324.795 153.442 322.243 153.537 319.81 154.196C316 153.093 312.552 152.991 310.196 155.93C307.232 155.93 304.39 157.113 302.293 159.216C300.198 161.32 299.02 164.172 299.02 167.148H309.707C309.2 169.884 309.779 172.709 311.32 175.021C313.208 177.804 316.488 179.815 317.119 183.121C317.731 186.323 315.562 189.363 313.286 191.691C311.012 194.019 308.372 196.325 307.662 199.507C307.227 201.924 307.721 204.415 309.045 206.479C310.366 208.519 312.006 210.331 313.901 211.848C322.437 219.189 332.583 224.399 343.51 227.052C351.205 228.911 359.622 229.393 366.764 225.973C369.623 224.604 372.169 222.661 374.246 220.263C376.324 217.864 377.888 215.063 378.842 212.033C379.794 209.002 380.117 205.808 379.789 202.648C379.46 199.487 378.487 196.428 376.932 193.66Z" fill="#454C55"/>
        <path d="M379.343 410.399H254.43C254.255 410.399 254.088 410.33 253.965 410.207C253.841 410.083 253.772 409.916 253.772 409.741C253.772 409.565 253.841 409.398 253.965 409.275C254.088 409.15 254.255 409.081 254.43 409.081H379.343C379.517 409.081 379.685 409.15 379.808 409.275C379.931 409.398 380 409.565 380 409.741C380 409.916 379.931 410.083 379.808 410.207C379.685 410.33 379.517 410.399 379.343 410.399Z" fill="#CCCCCC"/>
    </g>
</svg>
